<?xml version="1.0" encoding="UTF-8"?>
<svg id="Capa_1" data-name="Capa 1" xmlns="http://www.w3.org/2000/svg" viewBox="0 0 797.13 816.47">
  <path d="M381.22.38c159.33-7.02,313.46,82.95,379.38,228.55,99.88,220.63-12.89,475.55-242.76,547.67-39.77,12.48-84.34,14.43-118.55,39.87-11.67-7.32-22.49-13.81-35.61-18.37-25-8.69-52.71-12.51-78.41-20.35C136.74,732.47,25.16,608.11,3.85,452.86-28.37,218.13,145.4,10.78,381.22.38ZM136.12,129.06C-53.03,314.28,6.36,637.52,250.56,740.11c38.22,16.06,74.37,20.25,111.99,32.7,13.24,4.38,24.66,11.23,36.7,18.01,35.5-24.72,80.43-26.25,120.62-39.75,228.19-76.62,323.01-346.88,197.37-552.28C594.23-2.3,304.2-35.54,136.12,129.06Z"/>
  <path d="M405.58,118.32c2.3-.41,1.83-2.48,2.32-3.99,2.36-7.28,3.13-15.39,6.31-22.4,5.47-12.03,8.77-2.99,9.59,5.28.78,7.82-1.43,14.55-.99,22.24l11.6-26.84c2.75-3.15,4.49-3.9,6.5.13,4.55,9.13-2.77,24.19-4.32,33.61,8.72-4.92,11.96-24.46,17.16-29.33,11.32-10.63,5.79,20.97,2.19,25.15l-7.86,14.52c3.9-3.31,8.18-6.99,11.44-10.94,3.8-4.61,9.98-17.47,12.58-19.57,12.72-10.3,4.56,20.87-.58,24.68l-11.95,16.17c8.81-5.6,16.48-12.99,23.54-20.66,3.75-4.07,6.13-10.54,11.47-12.68,11.53-.07-5.79,24.65-8.63,28.14-3.46,4.26-8.38,7.45-11.46,12.07,15.64-4.55,24.04-20.87,37.29-28.7,5.27,6.77-3.97,19.07-8.62,24.66-14.64,17.6-43.34,30.65-65.41,35.64l-26.42,5.14c15.94,6.28,33.01,5.84,47.87-3.2,3.22-1.96,9.06-8.64,12.38-8.36,6.59.56-1.35,7.12.02,10.42,6.84-3.41,25.96-27.76,31.03-28.69.93-.17,1.92,0,2.84,0l-5.17,18.36c4.51-5.18,8.81-10.37,12.54-16.17,2.5-3.9,10.52-21.75,13.9-21.48,5.29.41,1.45,13.37.59,16.45-1.72,6.14-5.07,11.69-6.91,17.76,10.48-7.94,15.63-20.79,22.09-31.84l2.6-1.38c5.73,5.38,1.03,16.21-1.53,22.52-2.78,6.84-6.85,13.21-11.69,18.73,1.65,1.47,10.63-7.63,12.07-9.16,4.31-4.58,12.46-18.35,15.98-20.76,5.65-3.87,5.58,2.67,4.72,7.02-2.38,11.96-12.51,22.04-20.15,30.94,5.22-.67,10.21-4.93,14.32-8.06,3.72-2.84,14.62-14.53,16.68-15.47,1.9-.87,3.72-1,4.45,1.34,3.54,11.27-22.12,30.74-29.72,37.12,14.05-4.75,24.86-15.63,37.84-22.47l3.31,2.55c-11.61,25.54-46.61,40.84-73.05,44.88-37.42,5.71-71.02-6.93-104.2-22.63-1.87-.23-1.89-.18-1.65,1.63.46,3.5.87,8.21,3.43,10.37,5.02,4.24,20.26,12.3,26.75,15.74,29.93,15.87,58.57,27.15,90.69,8.77,2.47-1.41,20.96-17.14,20.15-8.61-.4,4.24-8.53,14.88-11.86,18.05l-12.65,10.31c15.59-4.78,28.21-15.92,38.43-28.17,4.03-4.83,6.36-13.67,13.8-12.04.9,17.44-12.19,30.11-24.05,40.84-1.79,1.61-.94,1.31.5,2.77,13.66-6.99,23.43-17.4,32.52-29.47,2.5-3.31,15.22-26.08,14.48-7.09-.56,14.27-15.42,29.18-24.6,38.87,11.57-4.45,22.43-14.6,31.03-23.5,1.69-1.75,13.48-19.49,14.95-9.19,1.85,13-20.15,33.53-29.9,40.72,9.71-1.53,18.76-8.52,26.77-13.98,2.97-2.02,15.82-14.87,17.91-8.23s-10.48,17.35-14.92,21.55l-20.57,12.14c12.78.06,26-9.65,37.59-12.34,6.06-1.41,6.26,1.01,3.59,5.89-9.26,16.99-56.45,24.73-74.49,24.85l38.2,8.28,3.11,2.61c-20.4,14.91-47.61-1.34-70.02-2.86l28.62,12.12c1.69,1.01,7.09,4.08,4,6.31-25.12,4.78-47.4-12.74-70.52-19.58,3.07,3.95,27.36,15.48,26.41,20.07-.29,1.37-2.71,1.72-4,1.84-12.98,1.13-40.02-16.11-51.47-23.28-2.63-1.65-6.22-6.16-8.83-4.95,4.42,5.32,11.34,8.88,15.52,14.34,8.92,11.65-5.49,5.79-11.34,3.3-21.68-9.24-39.6-31.69-58.14-45.77l3.39,195.83c.07,2.72.17,5.94.26,8.66,1.41,45.65,2.64,90.46,6.69,135.97,1.67,18.79,5.76,68.49,16.07,82.68,10.24,14.1,33.44,20.51,48.2,28.71-17.67,7.73-37.14,10.84-55.06,18.41-12.26,5.18-23.28,12.29-34.11,19.9-26.13-20.22-58.78-27.61-89.94-36.6-.44-2.11.56-2.26,1.99-3.16,12.41-7.8,32.02-11.69,42.79-23.81,17.93-20.19,19.89-78.04,20.66-104.5,6.14-107.25,7.18-214.56,9.19-322.09-17.2,11.38-50.31,49.79-70.95,50.28-1.85.04-2.44.32-3.68-1.5-.69-3.42,11.44-12.97,13.78-16.06.18-.86-1.11-.74-1.7-.55-7.02,2.27-20.53,13.71-29.32,17.76-7.56,3.48-19.72,9.28-27.51,4.62,4.94-8.72,15.82-11.32,22.94-17.79-21.37,5.14-41.46,22.43-64.3,17.2-.25-1.84-.15-2.62,1.15-4,5.59-5.94,24.44-9.04,31-15.49-18.26,3.79-39.14,12.23-57.97,10.31-4.43-.45-14.13-2.41-13.22-8.01,1.17-1.73,31.27-5.47,36.22-6.85,1.57-.44,3.56-.15,3.96-2.34-19.83-.71-62.35-6.49-74-24.2-1.86-2.83-2.29-6.63,2-6.59s21.06,8.03,26.96,9.79c3.78,1.13,7.82,2.08,11.73,2.61l-16.68-9.14c-9.01-6.1-19.41-14.46-18.91-26.44,3.05-2.98,16.39,9.51,19.83,11.74,9.04,5.88,18.96,12.11,29.54,14.66-4.27-4.05-9.82-6.52-14.32-10.36-9.21-7.86-19.45-21.73-18.87-34.3,6.32-2.95,10.32,7.22,14.22,11.38,8.84,9.43,19.8,18.66,31.59,24.09-10.34-9.37-23.66-23.97-25.13-38.58-.42-4.12-.01-12.17,5.31-7.01,1.94,1.88,7.34,12,10.18,15.64,8.5,10.87,20.08,21.85,33.17,26.54l-14.35-14.36c-4.35-7.05-12.37-17.76-11.58-26.43,1.15-12.59,12.76,8.74,15.05,11.47,9.78,11.66,23.08,20.58,37.28,25.87-.85-3.52-5.88-5.02-8.62-7.46-6.86-6.12-14.64-13.82-14.91-23.55,2.19-2.18,17.63,9.8,21.04,11.67,39.57,21.74,80.62-1.5,114.36-23.83,5.27-3.49,6.86-4.17,5.84-11.41-.22-1.57.65-2-1.69-1.67-33.92,17.51-71.49,29.54-109.95,21.47-18.68-3.92-53.74-19.53-63.09-36.81-2.57-4.75-5.31-11.87,3.33-7.93,6.56,2.99,16.76,12.36,24.79,16.54,2.77,1.44,5.47,3.39,8.8,3.24-1.79-2.73-6.02-3.65-8.61-5.73-8.41-6.78-22.44-20.78-21.24-32.15,3.13-2.16,18.13,13.78,21.91,16.55,1.77,1.3,12.42,8.65,13.68,7.55-9.62-10.47-23.64-23.55-20.65-39.02,1.7-.3,2.72.04,4.07,1.06,2.15,1.63,8.89,12.3,11.95,15.61,2.24,2.42,5.04,5.27,7.52,7.4,1.1.94,7.76,6.55,8.58,5.76-5.37-7.9-19.77-29.19-13.27-37.95.43-.58,2.14-2.61,2.94-1.68,6.17,11.61,11.9,23.75,22.95,31.6-.93-4.98-4.62-9.13-6.28-13.8-1.8-5.1-6.09-17.75,1.1-19.49l21.29,34.44h2.27c-1.12-4.12-3.48-8.95-3.49-13.18,0-1.76-.25-2.03,1.76-1.76,7.1.96,23.05,23.68,31.01,27.57,1.06-1.46-4.96-9.82,0-9.2,3.27.41,11.94,8.08,16.24,10.19,14.74,7.23,28.79,6.81,44.04,1.3-.17-1.64-5.08-1.98-6.45-2.14-30.59-3.69-67.31-16.43-87.04-41.57-2.33-2.97-14.48-21.89-5.87-21.75,12.81,8.55,21.6,23.97,37.35,28.73-7.57-7.2-15.3-14.61-19.95-24.25-2.02-4.2-5.8-11.07-3.09-15.44,4.9-3.52,11.57,9.09,14.41,12.16,2.53,2.72,19.53,20.77,22.41,18.35-6.29-6.85-12.19-14.13-15.48-22.97-2.02-5.43-7.07-19.12,2.86-17.82,4.76,7.31,8.37,14.89,13.8,21.83,1.53,1.96,12.64,15.26,14.9,13.23-7.26-6.47-20.95-35.04-15.01-43.15,1.42-1.94,3.95-1.71,5.53-.16,2.51,2.47,8.08,17.58,11.31,22.55,2,3.09,4.02,6.29,7.35,8.14-2.95-9.3-8.37-20.34-6.8-30.36.39-2.5,1.69-5.97,4.9-5.12,5.45,1.45,9.89,25.97,15.68,29.74-1.64-4.57-4.88-36.09,2.85-34.43,4.25.92,8.63,23.09,10.14,27.78.39,1.2.29,3.47,1.94,3.2,1.67-11.16.27-23.37,6.37-33.35,1.4-.16,2.42.22,3.5,1.1,4.32,3.57,5.33,27.25,5.08,33.4ZM384.89,241.2c-1.75-.4-2.7.38-4.09,1.06-6.42,3.13-16.24,11.83-22.85,16.19-20.92,13.8-42.56,26.29-65.29,36.91l-28.33,11.27c43.57-5.17,81.93-28.16,119.13-49.65l1.43-15.79ZM534.17,305.51c-26.59-5.16-49.99-20.02-73.39-32.84l-47.17-31.48.55,16.08c34.74,19.64,75.46,45.53,116.14,49.22,1.28.12,4.12,1.07,3.86-.99Z"/>
</svg>